<!--?xml version="1.0" encoding="utf-8"?-->
<!-- Generator: Adobe Illustrator 19.1.1, SVG Export Plug-In . SVG Version: 6.00 Build 0)  -->
<svg version="1.1" id="_x31_0" xmlns="http://www.w3.org/2000/svg" xmlns:xlink="http://www.w3.org/1999/xlink" x="0px" y="0px" viewBox="0 0 512 512" style="width: 512px; height: 512px; opacity: 1;" xml:space="preserve">
<style type="text/css">
	.st0{fill:#374149;}
</style>
<g>
	<path class="st0" d="M487.199,0H24.718C11.039,0,0,11.121,0,24.797v462.485C0,500.961,11.039,512,24.718,512h462.481
		c13.68,0,24.801-11.039,24.801-24.718V24.797C512,11.121,500.879,0,487.199,0z M55.199,346.477l-23.68-12.958V169.282l23.68-12.965
		c4.558-2.399,7.359-7.196,7.359-12.317V77.68c0-12.879,10.398-23.282,23.282-23.282h340.32c12.879,0,23.278,10.402,23.278,23.282
		V144c0,5.121,2.801,9.918,7.359,12.317l23.684,12.965v164.238l-23.684,12.958c-4.558,2.48-7.359,7.203-7.359,12.402v75.438
		c0,12.882-10.398,23.363-23.278,23.363H85.84c-12.883,0-23.282-10.481-23.282-23.363v-75.438
		C62.558,353.68,59.758,348.957,55.199,346.477z M33.68,24.16c5.359,0,9.679,4.398,9.679,9.68c0,5.359-4.32,9.679-9.679,9.679
		c-5.36,0-9.68-4.32-9.68-9.679C24,28.558,28.32,24.16,33.68,24.16z M33.68,468.477c5.359,0,9.679,4.402,9.679,9.683
		c0,5.359-4.32,9.68-9.679,9.68c-5.36,0-9.68-4.321-9.68-9.68C24,472.879,28.32,468.477,33.68,468.477z M478.238,487.84
		c-5.359,0-9.68-4.321-9.68-9.68c0-5.281,4.321-9.683,9.68-9.683c5.359,0,9.679,4.402,9.679,9.683
		C487.918,483.519,483.598,487.84,478.238,487.84z M478.238,43.519c-5.359,0-9.68-4.32-9.68-9.679c0-5.282,4.321-9.68,9.68-9.68
		c5.359,0,9.679,4.398,9.679,9.68C487.918,39.199,483.598,43.519,478.238,43.519z" style="fill: rgb(255, 255, 0);"></path>
	<polygon class="st0" points="150.149,94.879 128.477,94.879 128.406,94.879 128.406,94.879 128.25,94.879 128.25,116.782 
		150.149,116.782 	" style="fill: rgb(255, 255, 0);"></polygon>
	<polygon class="st0" points="183.523,94.879 161.848,94.879 161.782,94.879 161.782,94.879 161.621,94.879 161.621,116.782 
		183.523,116.782 	" style="fill: rgb(255, 255, 0);"></polygon>
	<polygon class="st0" points="216.89,94.879 195.215,94.879 195.149,94.879 195.149,94.879 194.988,94.879 194.988,116.782 
		216.89,116.782 	" style="fill: rgb(255, 255, 0);"></polygon>
	<polygon class="st0" points="250.262,94.879 228.59,94.879 228.523,94.879 228.523,94.879 228.363,94.879 228.363,116.782 
		250.262,116.782 	" style="fill: rgb(255, 255, 0);"></polygon>
	<polygon class="st0" points="261.734,116.621 261.734,116.782 283.629,116.782 283.629,95.106 283.633,95.039 283.629,95.039 
		283.629,94.879 261.961,94.879 261.894,94.879 261.894,94.879 261.734,94.879 261.734,116.554 261.734,116.621 	" style="fill: rgb(255, 255, 0);"></polygon>
	<polygon class="st0" points="295.102,116.621 295.102,116.782 317.004,116.782 317.004,94.879 295.328,94.879 295.262,94.879 
		295.262,94.879 295.102,94.879 295.102,116.554 295.102,116.621 	" style="fill: rgb(255, 255, 0);"></polygon>
	<polygon class="st0" points="350.375,94.879 328.703,94.879 328.637,94.879 328.637,94.879 328.477,94.879 328.477,116.782 
		350.375,116.782 	" style="fill: rgb(255, 255, 0);"></polygon>
	<polygon class="st0" points="383.742,94.879 362.07,94.879 362.004,94.879 362.004,94.879 361.844,94.879 361.844,116.782 
		383.742,116.782 	" style="fill: rgb(255, 255, 0);"></polygon>
	<polygon class="st0" points="94.879,149.992 94.879,150.152 116.778,150.152 116.778,128.25 94.879,128.25 94.879,149.926 
		94.879,149.992 	" style="fill: rgb(255, 255, 0);"></polygon>
	<rect x="128.25" y="128.25" class="st0" width="21.898" height="21.902" style="fill: rgb(255, 255, 0);"></rect>
	<rect x="161.621" y="128.25" class="st0" width="21.902" height="21.902" style="fill: rgb(255, 255, 0);"></rect>
	<rect x="194.988" y="128.25" class="st0" width="21.902" height="21.902" style="fill: rgb(255, 255, 0);"></rect>
	<rect x="228.363" y="128.25" class="st0" width="21.898" height="21.902" style="fill: rgb(255, 255, 0);"></rect>
	<polygon class="st0" points="261.734,150.152 283.629,150.152 283.629,128.477 283.633,128.41 283.629,128.41 283.629,128.25 
		261.734,128.25 261.734,149.926 261.734,149.992 261.734,149.992 	" style="fill: rgb(255, 255, 0);"></polygon>
	<polygon class="st0" points="295.102,150.152 317.004,150.152 317.004,128.25 295.102,128.25 295.102,149.926 295.102,149.992 
		295.102,149.992 	" style="fill: rgb(255, 255, 0);"></polygon>
	<rect x="328.477" y="128.25" class="st0" width="21.898" height="21.902" style="fill: rgb(255, 255, 0);"></rect>
	<rect x="361.844" y="128.25" class="st0" width="21.898" height="21.902" style="fill: rgb(255, 255, 0);"></rect>
	<rect x="395.218" y="128.25" class="st0" width="21.898" height="21.902" style="fill: rgb(255, 255, 0);"></rect>
	<polygon class="st0" points="94.879,183.523 116.778,183.523 116.778,161.625 94.879,161.625 94.879,183.297 94.879,183.359 
		94.879,183.359 	" style="fill: rgb(255, 255, 0);"></polygon>
	<rect x="128.25" y="161.625" class="st0" width="21.898" height="21.898" style="fill: rgb(255, 255, 0);"></rect>
	<polygon class="st0" points="161.606,183.375 161.606,183.539 173.637,183.539 183.5,173.61 183.5,161.637 161.606,161.637 
		161.606,183.313 161.606,183.375 	" style="fill: rgb(255, 255, 0);"></polygon>
	<polygon class="st0" points="350.355,183.539 350.355,161.863 350.355,161.797 350.355,161.797 350.355,161.637 328.461,161.637 
		328.461,173.562 338.43,183.539 	" style="fill: rgb(255, 255, 0);"></polygon>
	<rect x="361.844" y="161.625" class="st0" width="21.898" height="21.898" style="fill: rgb(255, 255, 0);"></rect>
	<rect x="395.218" y="161.625" class="st0" width="21.898" height="21.898" style="fill: rgb(255, 255, 0);"></rect>
	<polygon class="st0" points="94.879,216.89 116.778,216.89 116.778,194.992 94.879,194.992 94.879,216.664 94.879,216.734 
		94.879,216.734 	" style="fill: rgb(255, 255, 0);"></polygon>
	<rect x="128.25" y="194.992" class="st0" width="21.898" height="21.898" style="fill: rgb(255, 255, 0);"></rect>
	<rect x="361.844" y="194.992" class="st0" width="21.898" height="21.898" style="fill: rgb(255, 255, 0);"></rect>
	<rect x="395.218" y="194.992" class="st0" width="21.898" height="21.898" style="fill: rgb(255, 255, 0);"></rect>
	<polygon class="st0" points="94.879,250.266 116.778,250.266 116.778,228.363 94.879,228.363 94.879,250.039 94.879,250.106 
		94.879,250.106 	" style="fill: rgb(255, 255, 0);"></polygon>
	<rect x="128.25" y="228.363" class="st0" width="21.898" height="21.902" style="fill: rgb(255, 255, 0);"></rect>
	<rect x="361.844" y="228.363" class="st0" width="21.898" height="21.902" style="fill: rgb(255, 255, 0);"></rect>
	<rect x="395.218" y="228.363" class="st0" width="21.898" height="21.902" style="fill: rgb(255, 255, 0);"></rect>
	<polygon class="st0" points="94.879,283.637 116.778,283.637 116.778,261.734 95.106,261.734 95.039,261.734 95.039,261.734 
		94.879,261.734 94.879,283.406 94.879,283.477 94.879,283.477 	" style="fill: rgb(255, 255, 0);"></polygon>
	<polygon class="st0" points="150.149,261.734 128.477,261.734 128.406,261.734 128.406,261.734 128.25,261.734 128.25,283.637 
		150.149,283.637 	" style="fill: rgb(255, 255, 0);"></polygon>
	<polygon class="st0" points="383.742,261.734 362.07,261.734 362.004,261.734 362.004,261.734 361.844,261.734 361.844,283.637 
		383.742,283.637 	" style="fill: rgb(255, 255, 0);"></polygon>
	<polygon class="st0" points="417.117,261.734 395.446,261.734 395.375,261.734 395.375,261.734 395.218,261.734 395.218,283.637 
		417.117,283.637 	" style="fill: rgb(255, 255, 0);"></polygon>
	<polygon class="st0" points="94.879,317.008 116.778,317.008 116.778,295.11 95.106,295.11 95.039,295.11 95.039,295.11 
		94.879,295.11 94.879,316.782 94.879,316.844 94.879,316.844 	" style="fill: rgb(255, 255, 0);"></polygon>
	<polygon class="st0" points="150.149,295.11 128.477,295.11 128.406,295.11 128.406,295.11 128.25,295.11 128.25,317.008 
		150.149,317.008 	" style="fill: rgb(255, 255, 0);"></polygon>
	<polygon class="st0" points="383.742,295.11 362.07,295.11 362.004,295.11 362.004,295.11 361.844,295.11 361.844,317.008 
		383.742,317.008 	" style="fill: rgb(255, 255, 0);"></polygon>
	<polygon class="st0" points="417.117,295.11 395.446,295.11 395.375,295.11 395.375,295.11 395.218,295.11 395.218,317.008 
		417.117,317.008 	" style="fill: rgb(255, 255, 0);"></polygon>
	<polygon class="st0" points="94.879,350.375 116.778,350.375 116.778,328.477 94.879,328.477 94.879,350.149 94.879,350.218 
		94.879,350.218 	" style="fill: rgb(255, 255, 0);"></polygon>
	<rect x="128.25" y="328.477" class="st0" width="21.898" height="21.898" style="fill: rgb(255, 255, 0);"></rect>
	<polygon class="st0" points="161.606,350.39 183.5,350.39 183.5,338.414 173.582,328.492 161.836,328.492 161.766,328.492 
		161.766,328.492 161.606,328.492 161.606,350.164 161.606,350.234 161.606,350.234 	" style="fill: rgb(255, 255, 0);"></polygon>
	<polygon class="st0" points="350.355,350.39 350.355,328.718 350.355,328.649 350.355,328.649 350.355,328.492 338.383,328.492 
		328.461,338.355 328.461,350.195 328.461,350.234 328.461,350.234 328.461,350.39 	" style="fill: rgb(255, 255, 0);"></polygon>
	<rect x="361.844" y="328.477" class="st0" width="21.898" height="21.898" style="fill: rgb(255, 255, 0);"></rect>
	<rect x="395.218" y="328.477" class="st0" width="21.898" height="21.898" style="fill: rgb(255, 255, 0);"></rect>
	<polygon class="st0" points="94.879,383.75 116.778,383.75 116.778,361.848 94.879,361.848 94.879,383.523 94.879,383.59 
		94.879,383.59 	" style="fill: rgb(255, 255, 0);"></polygon>
	<rect x="128.25" y="361.848" class="st0" width="21.898" height="21.902" style="fill: rgb(255, 255, 0);"></rect>
	<rect x="161.621" y="361.848" class="st0" width="21.902" height="21.902" style="fill: rgb(255, 255, 0);"></rect>
	<rect x="194.988" y="361.848" class="st0" width="21.902" height="21.902" style="fill: rgb(255, 255, 0);"></rect>
	<rect x="228.363" y="361.848" class="st0" width="21.898" height="21.902" style="fill: rgb(255, 255, 0);"></rect>
	<polygon class="st0" points="283.629,361.848 261.734,361.848 261.734,383.523 261.734,383.59 261.734,383.59 261.734,383.75 
		283.629,383.75 283.629,362.078 283.633,362.008 283.629,362.008 	" style="fill: rgb(255, 255, 0);"></polygon>
	<polygon class="st0" points="295.102,383.523 295.102,383.59 295.102,383.59 295.102,383.75 317.004,383.75 317.004,361.848 
		295.102,361.848 	" style="fill: rgb(255, 255, 0);"></polygon>
	<rect x="328.477" y="361.848" class="st0" width="21.898" height="21.902" style="fill: rgb(255, 255, 0);"></rect>
	<rect x="361.844" y="361.848" class="st0" width="21.898" height="21.902" style="fill: rgb(255, 255, 0);"></rect>
	<rect x="395.218" y="361.848" class="st0" width="21.898" height="21.902" style="fill: rgb(255, 255, 0);"></rect>
	<polygon class="st0" points="150.149,395.218 128.477,395.218 128.406,395.218 128.406,395.218 128.25,395.218 128.25,417.121 
		150.149,417.121 	" style="fill: rgb(255, 255, 0);"></polygon>
	<polygon class="st0" points="161.782,395.218 161.782,395.218 161.621,395.218 161.621,417.121 183.523,417.121 183.523,395.218 
		161.848,395.218 	" style="fill: rgb(255, 255, 0);"></polygon>
	<polygon class="st0" points="195.149,395.218 195.149,395.218 194.988,395.218 194.988,417.121 216.89,417.121 216.89,395.218 
		195.215,395.218 	" style="fill: rgb(255, 255, 0);"></polygon>
	<polygon class="st0" points="228.523,395.218 228.523,395.218 228.363,395.218 228.363,417.121 250.262,417.121 250.262,395.218 
		228.59,395.218 	" style="fill: rgb(255, 255, 0);"></polygon>
	<polygon class="st0" points="283.629,395.379 283.629,395.218 261.961,395.218 261.894,395.218 261.894,395.218 261.734,395.218 
		261.734,416.89 261.734,416.961 261.734,416.961 261.734,417.121 283.629,417.121 283.629,395.446 283.633,395.379 	" style="fill: rgb(255, 255, 0);"></polygon>
	<polygon class="st0" points="295.262,395.218 295.262,395.218 295.102,395.218 295.102,416.89 295.102,416.961 295.102,416.961 
		295.102,417.121 317.004,417.121 317.004,395.218 295.328,395.218 	" style="fill: rgb(255, 255, 0);"></polygon>
	<polygon class="st0" points="328.637,395.218 328.637,395.218 328.477,395.218 328.477,417.121 350.375,417.121 350.375,395.218 
		328.703,395.218 	" style="fill: rgb(255, 255, 0);"></polygon>
	<polygon class="st0" points="383.742,395.218 362.07,395.218 362.004,395.218 362.004,395.218 361.844,395.218 361.844,417.121 
		383.742,417.121 	" style="fill: rgb(255, 255, 0);"></polygon>
	<path class="st0" d="M312.293,328.754l16.477-16.426V199.699l-16.477-16.477H199.668l-16.426,16.477v112.629l16.426,16.426H312.293
		z M209.938,267.282v-2.922v-16.687v-16.688v-16.683v-5.946l4.278-4.273h0.05h16.687h16.684h16.687h2.641l1.598,0.094l-4.238,4.598
		l-20.598,22.21l-12.774,13.766l-18.144,19.609l-1.703,1.824L209.938,267.282z" style="fill: rgb(255, 255, 0);"></path>
</g>
</svg>
