<?xml version="1.0" encoding="UTF-8"?>
<svg xmlns="http://www.w3.org/2000/svg" xmlns:xlink="http://www.w3.org/1999/xlink" width="500pt" height="500pt" viewBox="0 0 500 500" version="1.1">
<g id="surface1">
<path style=" stroke:none;fill-rule:nonzero;fill:#00b33c;fill-opacity:1;" d="M 475 212.5 C 475 202.148438 483.394531 193.75 493.75 193.75 L 493.75 165.625 C 493.75 160.46875 489.539062 156.25 484.375 156.25 L 15.625 156.25 C 10.46875 156.25 6.25 160.476562 6.25 165.625 L 6.25 193.75 C 16.605469 193.75 25 202.144531 25 212.5 C 25 222.855469 16.605469 231.25 6.25 231.25 L 6.25 306.25 L 15.625 306.25 L 15.625 343.75 L 137.5 343.75 L 137.5 334.375 C 137.5 329.210938 141.710938 325.007812 146.875 325 C 152.03125 325.007812 156.25 329.210938 156.25 334.375 L 156.25 343.75 L 484.375 343.75 L 484.375 306.25 L 493.75 306.257812 L 493.75 231.257812 C 483.394531 231.25 475 222.851562 475 212.5 Z M 118.75 278.125 C 118.75 283.289062 114.53125 287.5 109.375 287.5 L 71.875 287.5 C 66.71875 287.5 62.5 283.28125 62.5 278.125 L 62.5 203.125 C 62.5 197.96875 66.71875 193.75 71.875 193.75 L 109.375 193.75 C 114.53125 193.75 118.75 197.976562 118.75 203.125 Z M 225 278.125 C 225 283.28125 220.789062 287.5 215.625 287.5 L 178.125 287.5 C 172.960938 287.5 168.75 283.289062 168.75 278.125 L 168.75 203.125 C 168.75 197.976562 172.960938 193.75 178.125 193.75 L 215.625 193.75 C 220.789062 193.75 225 197.96875 225 203.125 Z M 331.25 278.125 C 331.25 283.289062 327.03125 287.5 321.875 287.507812 L 284.375 287.5 C 279.210938 287.507812 274.992188 283.289062 275 278.125 L 275 203.125 C 275 197.976562 279.21875 193.75 284.375 193.75 L 321.875 193.75 C 327.03125 193.75 331.25 197.976562 331.25 203.125 Z M 437.5 278.125 C 437.5 283.28125 433.28125 287.507812 428.125 287.5 L 390.625 287.507812 C 385.46875 287.5 381.25 283.28125 381.25 278.125 L 381.25 203.125 C 381.25 197.96875 385.46875 193.75 390.625 193.75 L 428.125 193.75 C 433.28125 193.75 437.5 197.976562 437.5 203.125 Z M 437.5 278.125 "/>
</g>
</svg>
